{"title":"Jim.Jefferies.Bare.2014.AVI.BRRip.360p.DivX.NLsub.{Th3Sp3cialist","uid":11011149,"size":795417297,"categoryP":"video","categoryS":"other","magnet":"?xt=urn:btih:ce1aaabdbfce498d3c640ab0a77d2ecf483dfcf0&amp;dn=Jim.Jefferies.Bare.2014.AVI.BRRip.360p.DivX.NLsub.%7BTh3Sp3cialist&amp;tr=udp%3A%2F%2Ftracker.openbittorrent.com%3A80&amp;tr=udp%3A%2F%2Fopen.demonii.com%3A1337&amp;tr=udp%3A%2F%2Ftracker.coppersurfer.tk%3A6969&amp;tr=udp%3A%2F%2Fexodus.desync.com%3A6969","seeders":5,"leechers":1,"uploader":"HOLLANDmovies","files":-1,"time":1410362298,"description":"JIM JEFFERIES - BARE 2014 (DivX 360p) \n\nINFO\n\nJim Jefferies: BARE (2014)\nVideo Comedy - 29 August 2014 (Netherlands)\n\nDirector: Shannon Hartman\nWriter: Jim Jefferies \n\nGENERAL:\n\nComplete name : Jim.Jefferies.Bare.2014.AVI.BRRip.360p.DivX.NLsub.{Th3Sp3cialist}.Movie.avi\nFormat : AVI\nFormat/Info : Audio Video Interleave\nFile size : 751 MiB\nDuration : 1h 16mn\nOverall bit rate : 1 373 Kbps\n\nVideo\nID : 0\nFormat : xvid\nCodec ID : xvid\nDuration : 1h 16mn\nBit rate : 1 168 Kbps\nWidth : 640 pixels\nHeight : 360 pixels\nDisplay aspect ratio : 16:9\nFrame rate : 30.000 fps\nBits/(Pixel*Frame) : 0.169\nStream size : 638 MiB (85%)\n\nAudio\nID : 1\nFormat : MPEG Audio\nFormat version : Version 1\nFormat profile : Layer 3\nMode : Joint stereo\nMode extension : MS Stereo\nCodec ID : 55\nCodec ID/Hint : MP3\nDuration : 1h 16mn\nBit rate mode : Constant\nBit rate : 192 Kbps\nChannel(s) : 2 channels\nSampling rate : 48.0 KHz\nCompression mode : Lossy\nStream size : 105 MiB (14%)\nAlignment : Aligned on interleaves\nInterleave, duration : 24 ms (0.72 video frame)\nInterleave, preload duration : 24 ms\n &lt;a href=&quot;\nhttp://bayimg.com/AaAFaAagf&quot; rel=&quot;nofollow&quot; target=&quot;_NEW&quot;&gt;\nhttp://bayimg.com/AaAFaAagf&lt;/a&gt; &lt;a href=&quot;\nhttp://bayimg.com/aAafBAagF&quot; rel=&quot;nofollow&quot; target=&quot;_NEW&quot;&gt;\nhttp://bayimg.com/aAafBAagF&lt;/a&gt; &lt;a href=&quot;\nhttp://bayimg.com/aaAFDaagf&quot; rel=&quot;nofollow&quot; target=&quot;_NEW&quot;&gt;\nhttp://bayimg.com/aaAFDaagf&lt;/a&gt;","torrent":{"xt":"urn:btih:ce1aaabdbfce498d3c640ab0a77d2ecf483dfcf0","amp;dn":"Jim.Jefferies.Bare.2014.AVI.BRRip.360p.DivX.NLsub.%7BTh3Sp3cialist","amp;tr":["udp%3A%2F%2Ftracker.openbittorrent.com%3A80","udp%3A%2F%2Fopen.demonii.com%3A1337","udp%3A%2F%2Ftracker.coppersurfer.tk%3A6969","udp%3A%2F%2Fexodus.desync.com%3A6969"],"infoHash":"ce1aaabdbfce498d3c640ab0a77d2ecf483dfcf0","infoHashBuffer":{"type":"Buffer","data":[206,26,170,189,191,206,73,141,60,100,10,176,167,125,46,207,72,61,252,240]},"announce":[],"urlList":[]}}